<?xml version="1.0" encoding="UTF-8"?>
<svg width="155px" height="97px" viewBox="0 0 155 97" version="1.1" xmlns="http://www.w3.org/2000/svg" xmlns:xlink="http://www.w3.org/1999/xlink">
    <!-- Generator: Sketch 52.5 (67469) - http://www.bohemiancoding.com/sketch -->
    <title>Group</title>
    <desc>Created with Sketch.</desc>
    <g id="Page-1" stroke="none" stroke-width="1" fill="none" fill-rule="evenodd">
        <g id="Artboard" transform="translate(-28.000000, -57.000000)" fill="#F5A623" stroke="#FFFFFF" stroke-width="0.5">
            <g id="Group" transform="translate(28.000000, 57.000000)">
                <rect id="Rectangle" x="124.25" y="12.25" width="30.5" height="16.5"></rect>
                <rect id="Rectangle" x="93.25" y="29.25" width="30.5" height="16.5"></rect>
                <rect id="Rectangle" x="81.25" y="0.25" width="30.5" height="16.5"></rect>
                <rect id="Rectangle" x="31.25" y="63.25" width="30.5" height="16.5"></rect>
                <rect id="Rectangle" x="62.25" y="46.25" width="30.5" height="16.5"></rect>
                <rect id="Rectangle" x="0.25" y="80.25" width="30.5" height="16.5"></rect>
                <rect id="Rectangle" transform="translate(139.500000, 88.500000) scale(-1, 1) translate(-139.500000, -88.500000) " x="124.25" y="80.25" width="30.5" height="16.5"></rect>
                <rect id="Rectangle" transform="translate(139.500000, 71.500000) scale(-1, 1) translate(-139.500000, -71.500000) " x="124.25" y="63.25" width="30.5" height="16.5"></rect>
                <rect id="Rectangle" transform="translate(139.500000, 54.500000) scale(-1, 1) translate(-139.500000, -54.500000) " x="124.25" y="46.25" width="30.5" height="16.5"></rect>
                <rect id="Rectangle" transform="translate(108.500000, 54.500000) scale(-1, 1) translate(-108.500000, -54.500000) " x="93.25" y="46.25" width="30.5" height="16.5"></rect>
                <rect id="Rectangle" transform="translate(139.500000, 37.500000) scale(-1, 1) translate(-139.500000, -37.500000) " x="124.25" y="29.25" width="30.5" height="16.5"></rect>
                <rect id="Rectangle" transform="translate(108.500000, 71.500000) scale(-1, 1) translate(-108.500000, -71.500000) " x="93.25" y="63.25" width="30.5" height="16.5"></rect>
                <rect id="Rectangle" transform="translate(77.500000, 71.500000) scale(-1, 1) translate(-77.500000, -71.500000) " x="62.25" y="63.25" width="30.5" height="16.5"></rect>
                <rect id="Rectangle" transform="translate(108.500000, 88.500000) scale(-1, 1) translate(-108.500000, -88.500000) " x="93.25" y="80.25" width="30.5" height="16.5"></rect>
                <rect id="Rectangle" transform="translate(77.500000, 88.500000) scale(-1, 1) translate(-77.500000, -88.500000) " x="62.25" y="80.25" width="30.5" height="16.5"></rect>
                <rect id="Rectangle" transform="translate(46.500000, 88.500000) scale(-1, 1) translate(-46.500000, -88.500000) " x="31.25" y="80.25" width="30.5" height="16.5"></rect>
            </g>
        </g>
    </g>
</svg>