<?xml version="1.0" encoding="UTF-8"?>
<svg width="515px" height="326px" viewBox="0 0 515 326" version="1.1" xmlns="http://www.w3.org/2000/svg" xmlns:xlink="http://www.w3.org/1999/xlink">
    <!-- Generator: Sketch 52.5 (67469) - http://www.bohemiancoding.com/sketch -->
    <title>Artboard</title>
    <desc>Created with Sketch.</desc>
    <defs>
        <path d="M26.5507812,70.5976562 C26.8697933,76.2942993 28.2141809,80.9199041 30.5839844,84.4746094 C35.0957257,91.1282885 43.0481201,94.4550781 54.4414062,94.4550781 C59.5455984,94.4550781 64.1939895,93.7259187 68.3867188,92.2675781 C76.4987385,89.4420432 80.5546875,84.3835 80.5546875,77.0917969 C80.5546875,71.6230195 78.8457202,67.7265741 75.4277344,65.4023437 C71.9641754,63.1236865 66.5410525,61.1412845 59.1582031,59.4550781 L45.5546875,56.3789062 C36.6679243,54.3736879 30.3789247,52.1634235 26.6875,49.7480469 C20.3072598,45.5553176 17.1171875,39.2891042 17.1171875,30.9492187 C17.1171875,21.9257361 20.2389011,14.5202112 26.4824219,8.73242187 C32.7259427,2.94463252 41.5670001,0.05078125 53.0058594,0.05078125 C63.5332558,0.05078125 72.4768512,2.59144595 79.8369141,7.67285156 C87.1969769,12.7542572 90.8769531,20.8775483 90.8769531,32.0429687 L78.09375,32.0429687 C77.4101528,26.6653377 75.9518341,22.54103 73.71875,19.6699219 C69.5715938,14.4290103 62.5306486,11.8085937 52.5957031,11.8085937 C44.5748297,11.8085937 38.8099134,13.4947748 35.3007812,16.8671875 C31.7916491,20.2396002 30.0371094,24.1588318 30.0371094,28.625 C30.0371094,33.5468996 32.0878701,37.147124 36.1894531,39.4257812 C38.8782687,40.8841219 44.9621922,42.7070203 54.4414062,44.8945312 L68.5234375,48.1074219 C75.313836,49.6569088 80.554669,51.7760282 84.2460938,54.4648437 C90.626334,59.1588776 93.8164062,65.9719605 93.8164062,74.9042969 C93.8164062,86.0241441 89.7718503,93.9765386 81.6826172,98.7617188 C73.593384,103.546899 64.194064,105.939453 53.484375,105.939453 C40.9973334,105.939453 31.2220405,102.749381 24.1582031,96.3691406 C17.0943657,90.0344735 13.6308587,81.4440646 13.7675781,70.5976562 L26.5507812,70.5976562 Z M157.732422,48.5859375 C164.112662,48.5859375 169.159812,47.3099086 172.874023,44.7578125 C176.588235,42.2057164 178.445312,37.6028979 178.445312,30.9492187 C178.445312,23.7942351 175.847682,18.9179817 170.652344,16.3203125 C167.872382,14.9531182 164.158226,14.2695312 159.509766,14.2695312 L126.287109,14.2695312 L126.287109,48.5859375 L157.732422,48.5859375 Z M112.683594,2.58007812 L159.167969,2.58007812 C166.824257,2.58007812 173.136043,3.69660342 178.103516,5.9296875 C187.537157,10.2135631 192.253906,18.1203851 192.253906,29.6503906 C192.253906,35.6660457 191.012057,40.5878715 188.52832,44.4160156 C186.044584,48.2441598 182.569684,51.3203009 178.103516,53.6445312 C182.022806,55.2395913 184.973623,57.3359245 186.956055,59.9335938 C188.938486,62.531263 190.043619,66.7467156 190.271484,72.5800781 L190.75,86.046875 C190.886719,89.8750191 191.205727,92.7232979 191.707031,94.5917969 C192.527348,97.781917 193.985667,99.8326777 196.082031,100.744141 L196.082031,103 L179.402344,103 C178.946612,102.13411 178.582033,101.017585 178.308594,99.6503906 C178.035155,98.2831963 177.807293,95.6399936 177.625,91.7207031 L176.804688,74.9726562 C176.485675,68.4101234 174.047549,64.012381 169.490234,61.7792969 C166.892565,60.548822 162.81383,59.9335938 157.253906,59.9335938 L126.287109,59.9335938 L126.287109,103 L112.683594,103 L112.683594,2.58007812 Z" id="path-1"></path>
        <path d="M3.2168457,145.890479 C3.75965441,146.303013 4.12875879,146.69383 4.32416992,147.062939 C4.57386193,147.551467 4.69870605,148.132264 4.69870605,148.805347 L4.69870605,154.651367 C4.69870605,155.270169 4.87783024,155.777688 5.23608398,156.173938 C5.59433773,156.570188 6.03943419,156.795451 6.57138672,156.849731 C6.90792811,156.8823 7.13047635,156.947436 7.23903809,157.045142 C7.38016835,157.175416 7.45073242,157.338256 7.45073242,157.533667 C7.45073242,157.739934 7.38016835,157.905488 7.23903809,158.030334 C7.09790782,158.15518 6.89164361,158.217603 6.62023926,158.217603 C5.76260151,158.217603 5.04610476,157.946202 4.47072754,157.403394 C3.69993918,156.654318 3.31455078,155.742413 3.31455078,154.667651 L3.31455078,148.805347 C3.31455078,148.208257 3.1354266,147.706167 2.77717285,147.29906 C2.41891911,146.891954 1.96296664,146.666691 1.40930176,146.623267 C1.10532888,146.590698 0.893636665,146.514706 0.77421875,146.395288 C0.654800835,146.27587 0.595092773,146.107602 0.595092773,145.890479 C0.595092773,145.684211 0.654800835,145.521371 0.77421875,145.401953 C0.893636665,145.282535 1.10532888,145.206543 1.40930176,145.173975 C1.97382281,145.13055 2.43248928,144.905288 2.78531494,144.498181 C3.1381406,144.091075 3.31455078,143.588984 3.31455078,142.991895 L3.31455078,137.12959 C3.31455078,136.109109 3.64023112,135.259627 4.29160156,134.581116 C4.94297201,133.902605 5.72460482,133.563354 6.63652344,133.563354 C6.89707162,133.563354 7.09790782,133.628491 7.23903809,133.758765 C7.38016835,133.889039 7.45073242,134.051879 7.45073242,134.24729 C7.45073242,134.442701 7.38016835,134.605541 7.23903809,134.735815 C7.14133252,134.844377 6.91878429,134.914941 6.57138672,134.94751 C6.02857802,135.001791 5.58076755,135.229767 5.22794189,135.631445 C4.87511624,136.033124 4.69870605,136.5325 4.69870605,137.12959 L4.69870605,142.991895 C4.69870605,143.675833 4.59014594,144.226776 4.37302246,144.644739 C4.15589898,145.062701 3.77051058,145.477944 3.2168457,145.890479 Z M30.7208252,133.563354 L30.7208252,152.632129 L32.5446533,152.632129 C32.8811947,152.632129 33.120027,152.694551 33.2611572,152.819397 C33.4022875,152.944243 33.4728516,153.109797 33.4728516,153.316064 C33.4728516,153.511476 33.4022875,153.674316 33.2611572,153.80459 C33.120027,153.934864 32.8811947,154 32.5446533,154 L29.3366699,154 L29.3366699,151.280542 C27.7516685,153.451777 25.7378784,154.537378 23.2952393,154.537378 C22.0576354,154.537378 20.8716162,154.208984 19.737146,153.552185 C18.6026758,152.895387 17.7070549,151.959056 17.0502563,150.743164 C16.3934578,149.527273 16.0650635,148.273403 16.0650635,146.981519 C16.0650635,145.678778 16.3934578,144.422194 17.0502563,143.211731 C17.7070549,142.001268 18.6026758,141.064937 19.737146,140.40271 C20.8716162,139.740483 22.0630634,139.409375 23.3115234,139.409375 C25.6998817,139.409375 27.7082438,140.494976 29.3366699,142.666211 L29.3366699,134.94751 L27.5128418,134.94751 C27.1763004,134.94751 26.9374682,134.882374 26.7963379,134.7521 C26.6552076,134.621826 26.5846436,134.453557 26.5846436,134.24729 C26.5846436,134.051879 26.6552076,133.889039 26.7963379,133.758765 C26.9374682,133.628491 27.1763004,133.563354 27.5128418,133.563354 L30.7208252,133.563354 Z M29.3366699,146.981519 C29.3366699,145.244531 28.7504453,143.778969 27.5779785,142.58479 C26.4055117,141.390611 25.0105143,140.79353 23.3929443,140.79353 C21.7645182,140.79353 20.3640928,141.390611 19.191626,142.58479 C18.0191592,143.778969 17.4329346,145.244531 17.4329346,146.981519 C17.4329346,148.70765 18.0191592,150.170498 19.191626,151.370105 C20.3640928,152.569712 21.7645182,153.169507 23.3929443,153.169507 C25.0105143,153.169507 26.4055117,152.569712 27.5779785,151.370105 C28.7504453,150.170498 29.3366699,148.70765 29.3366699,146.981519 Z M51.4343018,147.274634 L37.4950439,147.274634 C37.7338798,149.04419 38.4748025,150.469042 39.7178345,151.549231 C40.9608664,152.62942 42.499706,153.169507 44.3343994,153.169507 C45.3548798,153.169507 46.4241969,153.001239 47.5423828,152.664697 C48.6605687,152.328156 49.5724737,151.883059 50.278125,151.329395 C50.4843923,151.166552 50.6635165,151.085132 50.8155029,151.085132 C50.9892017,151.085132 51.1411859,151.152982 51.27146,151.288684 C51.401734,151.424386 51.4668701,151.584512 51.4668701,151.769067 C51.4668701,151.953622 51.380022,152.132747 51.2063232,152.306445 C50.6852269,152.849254 49.7597519,153.356773 48.4298706,153.829016 C47.0999893,154.30126 45.7348459,154.537378 44.3343994,154.537378 C41.9894658,154.537378 40.0326698,153.769315 38.4639526,152.233167 C36.8952355,150.697018 36.1108887,148.837926 36.1108887,146.655835 C36.1108887,144.669155 36.8463834,142.964761 38.317395,141.542603 C39.7884066,140.120444 41.6095025,139.409375 43.7807373,139.409375 C46.0171092,139.409375 47.8572031,140.139442 49.3010742,141.599597 C50.7449454,143.059753 51.4560141,144.951413 51.4343018,147.274634 Z M50.0501465,145.890479 C49.7787421,144.38147 49.0649594,143.154741 47.9087769,142.210254 C46.7525943,141.265767 45.3765949,140.79353 43.7807373,140.79353 C42.1848797,140.79353 40.8115943,141.260339 39.6608398,142.19397 C38.5100854,143.127601 37.7935887,144.359758 37.5113281,145.890479 L50.0501465,145.890479 Z M65.2432861,154 L62.9309326,154 L57.3128906,141.282056 L55.9124512,141.282056 C55.5867659,141.282056 55.3533617,141.21692 55.2122314,141.086646 C55.0711012,140.956371 55.0005371,140.788103 55.0005371,140.581836 C55.0005371,140.386425 55.0711012,140.223585 55.2122314,140.093311 C55.3533617,139.963036 55.5867659,139.8979 55.9124512,139.8979 L61.0419678,139.8979 C61.367653,139.8979 61.6010572,139.963036 61.7421875,140.093311 C61.8833178,140.223585 61.9538818,140.391853 61.9538818,140.59812 C61.9538818,140.793531 61.8833178,140.956371 61.7421875,141.086646 C61.6010572,141.21692 61.367653,141.282056 61.0419678,141.282056 L58.7784668,141.282056 L63.7939941,152.632129 L64.3965088,152.632129 L69.3143311,141.282056 L67.0345459,141.282056 C66.7088607,141.282056 66.4754564,141.21692 66.3343262,141.086646 C66.1931959,140.956371 66.1226318,140.788103 66.1226318,140.581836 C66.1226318,140.386425 66.1931959,140.223585 66.3343262,140.093311 C66.4754564,139.963036 66.7088607,139.8979 67.0345459,139.8979 L72.1803467,139.8979 C72.5168881,139.8979 72.7530063,139.963036 72.8887085,140.093311 C73.0244107,140.223585 73.0922607,140.391853 73.0922607,140.59812 C73.0922607,140.793531 73.0244107,140.956371 72.8887085,141.086646 C72.7530063,141.21692 72.5168881,141.282056 72.1803467,141.282056 L70.7961914,141.282056 L65.2432861,154 Z M91.4608154,147.274634 L77.5215576,147.274634 C77.7603934,149.04419 78.5013162,150.469042 79.7443481,151.549231 C80.9873801,152.62942 82.5262197,153.169507 84.3609131,153.169507 C85.3813934,153.169507 86.4507106,153.001239 87.5688965,152.664697 C88.6870824,152.328156 89.5989874,151.883059 90.3046387,151.329395 C90.510906,151.166552 90.6900302,151.085132 90.8420166,151.085132 C91.0157154,151.085132 91.1676995,151.152982 91.2979736,151.288684 C91.4282477,151.424386 91.4933838,151.584512 91.4933838,151.769067 C91.4933838,151.953622 91.4065357,152.132747 91.2328369,152.306445 C90.7117406,152.849254 89.7862656,153.356773 88.4563843,153.829016 C87.126503,154.30126 85.7613595,154.537378 84.3609131,154.537378 C82.0159795,154.537378 80.0591835,153.769315 78.4904663,152.233167 C76.9217492,150.697018 76.1374023,148.837926 76.1374023,146.655835 C76.1374023,144.669155 76.8728971,142.964761 78.3439087,141.542603 C79.8149203,140.120444 81.6360162,139.409375 83.807251,139.409375 C86.0436228,139.409375 87.8837167,140.139442 89.3275879,141.599597 C90.771459,143.059753 91.4825278,144.951413 91.4608154,147.274634 Z M90.0766602,145.890479 C89.8052558,144.38147 89.0914731,143.154741 87.9352905,142.210254 C86.779108,141.265767 85.4031086,140.79353 83.807251,140.79353 C82.2113934,140.79353 80.838108,141.260339 79.6873535,142.19397 C78.5365991,143.127601 77.8201023,144.359758 77.5378418,145.890479 L90.0766602,145.890479 Z M104.76499,133.563354 L104.76499,152.632129 L110.13877,152.632129 C110.475311,152.632129 110.714143,152.694551 110.855273,152.819397 C110.996404,152.944243 111.066968,153.109797 111.066968,153.316064 C111.066968,153.511476 110.996404,153.674316 110.855273,153.80459 C110.714143,153.934864 110.475311,154 110.13877,154 L98.0233398,154 C97.6976546,154 97.4642504,153.934864 97.3231201,153.80459 C97.1819899,153.674316 97.1114258,153.511476 97.1114258,153.316064 C97.1114258,153.109797 97.1819899,152.944243 97.3231201,152.819397 C97.4642504,152.694551 97.6976546,152.632129 98.0233398,152.632129 L103.397119,152.632129 L103.397119,134.94751 L99.4563477,134.94751 C99.1306624,134.94751 98.8945442,134.882374 98.7479858,134.7521 C98.6014275,134.621826 98.5281494,134.453557 98.5281494,134.24729 C98.5281494,134.051879 98.5987135,133.889039 98.7398438,133.758765 C98.880974,133.628491 99.1198063,133.563354 99.4563477,133.563354 L104.76499,133.563354 Z M131.731592,146.981519 C131.731592,149.065904 130.985241,150.84629 129.492517,152.322729 C127.999793,153.799169 126.200409,154.537378 124.094312,154.537378 C121.966501,154.537378 120.158976,153.796455 118.67168,152.314587 C117.184384,150.83272 116.440747,149.055048 116.440747,146.981519 C116.440747,144.897133 117.184384,143.114033 118.67168,141.632166 C120.158976,140.150298 121.966501,139.409375 124.094312,139.409375 C126.200409,139.409375 127.999793,140.147584 129.492517,141.624023 C130.985241,143.100463 131.731592,144.886277 131.731592,146.981519 Z M130.347437,146.981519 C130.347437,145.266243 129.736786,143.80611 128.515466,142.601074 C127.294147,141.396039 125.815015,140.79353 124.078027,140.79353 C122.341039,140.79353 120.861908,141.398753 119.640588,142.609216 C118.419269,143.81968 117.808618,145.277099 117.808618,146.981519 C117.808618,148.675082 118.419269,150.129787 119.640588,151.345679 C120.861908,152.56157 122.341039,153.169507 124.078027,153.169507 C125.815015,153.169507 127.294147,152.564284 128.515466,151.353821 C129.736786,150.143357 130.347437,148.685938 130.347437,146.981519 Z M138.945483,139.8979 L138.945483,142.38938 C139.759696,141.401468 140.633605,140.657831 141.567236,140.158447 C142.500867,139.659063 143.602752,139.409375 144.872925,139.409375 C146.21909,139.409375 147.462104,139.724199 148.602002,140.353857 C149.7419,140.983516 150.623951,141.860138 151.248181,142.983752 C151.872411,144.107366 152.184521,145.287958 152.184521,146.525562 C152.184521,148.490529 151.481595,150.170497 150.07572,151.565515 C148.669846,152.960534 146.941026,153.658032 144.889209,153.658032 C142.44657,153.658032 140.465348,152.664707 138.945483,150.678027 L138.945483,158.917822 L142.267456,158.917822 C142.593141,158.917822 142.826546,158.980244 142.967676,159.10509 C143.108806,159.229936 143.17937,159.395491 143.17937,159.601758 C143.17937,159.797169 143.108806,159.960009 142.967676,160.090283 C142.826546,160.220557 142.593141,160.285693 142.267456,160.285693 L135.7375,160.285693 C135.411815,160.285693 135.178411,160.223271 135.03728,160.098425 C134.89615,159.973579 134.825586,159.808025 134.825586,159.601758 C134.825586,159.395491 134.89615,159.229936 135.03728,159.10509 C135.178411,158.980244 135.411815,158.917822 135.7375,158.917822 L137.577612,158.917822 L137.577612,141.282056 L135.7375,141.282056 C135.411815,141.282056 135.178411,141.21692 135.03728,141.086646 C134.89615,140.956371 134.825586,140.788103 134.825586,140.581836 C134.825586,140.386425 134.89615,140.223585 135.03728,140.093311 C135.178411,139.963036 135.411815,139.8979 135.7375,139.8979 L138.945483,139.8979 Z M150.800366,146.525562 C150.800366,144.951416 150.227712,143.602557 149.082385,142.478943 C147.937059,141.355329 146.539347,140.79353 144.889209,140.79353 C143.228214,140.79353 141.822361,141.358043 140.671606,142.487085 C139.520852,143.616127 138.945483,144.962272 138.945483,146.525562 C138.945483,148.099707 139.520852,149.45128 140.671606,150.580322 C141.822361,151.709364 143.228214,152.273877 144.889209,152.273877 C146.528491,152.273877 147.923489,151.712078 149.074243,150.588464 C150.224998,149.46485 150.800366,148.110563 150.800366,146.525562 Z M171.513843,147.274634 L157.574585,147.274634 C157.813421,149.04419 158.554344,150.469042 159.797375,151.549231 C161.040407,152.62942 162.579247,153.169507 164.41394,153.169507 C165.434421,153.169507 166.503738,153.001239 167.621924,152.664697 C168.74011,152.328156 169.652015,151.883059 170.357666,151.329395 C170.563933,151.166552 170.743058,151.085132 170.895044,151.085132 C171.068743,151.085132 171.220727,151.152982 171.351001,151.288684 C171.481275,151.424386 171.546411,151.584512 171.546411,151.769067 C171.546411,151.953622 171.459563,152.132747 171.285864,152.306445 C170.764768,152.849254 169.839293,153.356773 168.509412,153.829016 C167.17953,154.30126 165.814387,154.537378 164.41394,154.537378 C162.069007,154.537378 160.112211,153.769315 158.543494,152.233167 C156.974776,150.697018 156.19043,148.837926 156.19043,146.655835 C156.19043,144.669155 156.925924,142.964761 158.396936,141.542603 C159.867948,140.120444 161.689044,139.409375 163.860278,139.409375 C166.09665,139.409375 167.936744,140.139442 169.380615,141.599597 C170.824486,143.059753 171.535555,144.951413 171.513843,147.274634 Z M170.129688,145.890479 C169.858283,144.38147 169.1445,143.154741 167.988318,142.210254 C166.832135,141.265767 165.456136,140.79353 163.860278,140.79353 C162.264421,140.79353 160.891135,141.260339 159.740381,142.19397 C158.589626,143.127601 157.87313,144.359758 157.590869,145.890479 L170.129688,145.890479 Z M182.48938,139.8979 L182.48938,143.350146 C184.269792,141.743433 185.602368,140.709398 186.487146,140.24801 C187.371924,139.786623 188.188839,139.555933 188.937915,139.555933 C189.752128,139.555933 190.509335,139.830047 191.209558,140.378284 C191.909781,140.92652 192.259888,141.341763 192.259888,141.624023 C192.259888,141.830291 192.192038,142.001273 192.056335,142.136975 C191.920633,142.272677 191.749651,142.340527 191.543384,142.340527 C191.434822,142.340527 191.342546,142.321529 191.266553,142.283533 C191.19056,142.245536 191.049431,142.123406 190.843164,141.917139 C190.463198,141.537173 190.13209,141.276628 189.849829,141.135498 C189.567569,140.994368 189.29074,140.923804 189.019336,140.923804 C188.422246,140.923804 187.703036,141.162636 186.861682,141.640308 C186.020329,142.117979 184.562909,143.285 182.48938,145.141406 L182.48938,152.632129 L188.547095,152.632129 C188.883636,152.632129 189.122468,152.694551 189.263599,152.819397 C189.404729,152.944243 189.475293,153.109797 189.475293,153.316064 C189.475293,153.511476 189.404729,153.674316 189.263599,153.80459 C189.122468,153.934864 188.883636,154 188.547095,154 L177.81582,154 C177.490135,154 177.256731,153.937578 177.115601,153.812732 C176.97447,153.687886 176.903906,153.52776 176.903906,153.332349 C176.903906,153.147794 176.971756,152.993096 177.107458,152.86825 C177.243161,152.743404 177.479279,152.680981 177.81582,152.680981 L181.121509,152.680981 L181.121509,141.282056 L178.597461,141.282056 C178.271776,141.282056 178.038371,141.21692 177.897241,141.086646 C177.756111,140.956371 177.685547,140.788103 177.685547,140.581836 C177.685547,140.386425 177.753397,140.223585 177.889099,140.093311 C178.024801,139.963036 178.26092,139.8979 178.597461,139.8979 L182.48938,139.8979 Z M204.945264,145.890479 C204.391599,145.477944 204.022494,145.087127 203.837939,144.718018 C203.588247,144.240346 203.463403,143.664977 203.463403,142.991895 L203.463403,137.12959 C203.463403,136.521644 203.284279,136.01684 202.926025,135.615161 C202.567772,135.213483 202.122675,134.990934 201.590723,134.94751 C201.243325,134.914941 201.020777,134.849805 200.923071,134.7521 C200.781941,134.610969 200.711377,134.442701 200.711377,134.24729 C200.711377,134.051879 200.779227,133.889039 200.914929,133.758765 C201.050631,133.628491 201.254182,133.563354 201.525586,133.563354 C202.39408,133.563354 203.110577,133.840183 203.675098,134.393848 C204.445886,135.132067 204.831274,136.043972 204.831274,137.12959 L204.831274,142.991895 C204.831274,143.588984 205.013113,144.091075 205.376794,144.498181 C205.740476,144.905288 206.199143,145.13055 206.752808,145.173975 C207.045924,145.206543 207.254903,145.282535 207.379749,145.401953 C207.504595,145.521371 207.567017,145.684211 207.567017,145.890479 C207.567017,146.107602 207.504595,146.27587 207.379749,146.395288 C207.254903,146.514706 207.045924,146.590698 206.752808,146.623267 C206.188287,146.666691 205.726906,146.891954 205.368652,147.29906 C205.010399,147.706167 204.831274,148.208257 204.831274,148.805347 L204.831274,154.667651 C204.831274,155.688132 204.505594,156.537615 203.854224,157.216125 C203.202853,157.894636 202.426648,158.233887 201.525586,158.233887 C201.254182,158.233887 201.050631,158.168751 200.914929,158.038477 C200.779227,157.908202 200.711377,157.739934 200.711377,157.533667 C200.711377,157.338256 200.776513,157.175416 200.906787,157.045142 C201.015349,156.947436 201.243325,156.8823 201.590723,156.849731 C202.133531,156.795451 202.581342,156.56476 202.934167,156.157654 C203.286993,155.750547 203.463403,155.248457 203.463403,154.651367 L203.463403,148.805347 C203.463403,148.121408 203.571963,147.567751 203.789087,147.14436 C204.00621,146.72097 204.391599,146.303013 204.945264,145.890479 Z" id="path-2"></path>
    </defs>
    <g id="Artboard" stroke="none" stroke-width="1" fill="none" fill-rule="evenodd">
        <g id="Group-3" transform="translate(0.000000, 72.000000)">
            <g id="Group-2" transform="translate(151.000000, 0.000000)" fill="#000000">
                <g id="SR">
                    <use xlink:href="#path-1"></use>
                    <use xlink:href="#path-1"></use>
                </g>
                <g id="{developer}">
                    <use xlink:href="#path-2"></use>
                    <use xlink:href="#path-2"></use>
                </g>
            </g>
            <g id="Group" transform="translate(358.000000, 108.000000)" fill="#9e3000" stroke="#d65f09" stroke-width="0.5">
                <rect id="Rectangle" x="124.25" y="12.25" width="30.5" height="16.5"></rect>
                <rect id="Rectangle" x="93.25" y="29.25" width="30.5" height="16.5"></rect>
                <rect id="Rectangle" x="81.25" y="0.25" width="30.5" height="16.5"></rect>
                <rect id="Rectangle" x="31.25" y="63.25" width="30.5" height="16.5"></rect>
                <rect id="Rectangle" x="62.25" y="46.25" width="30.5" height="16.5"></rect>
                <rect id="Rectangle" x="0.25" y="80.25" width="30.5" height="16.5"></rect>
                <rect id="Rectangle" transform="translate(139.500000, 88.500000) scale(-1, 1) translate(-139.500000, -88.500000) " x="124.25" y="80.25" width="30.5" height="16.5"></rect>
                <rect id="Rectangle" transform="translate(139.500000, 71.500000) scale(-1, 1) translate(-139.500000, -71.500000) " x="124.25" y="63.25" width="30.5" height="16.5"></rect>
                <rect id="Rectangle" transform="translate(139.500000, 54.500000) scale(-1, 1) translate(-139.500000, -54.500000) " x="124.25" y="46.25" width="30.5" height="16.5"></rect>
                <rect id="Rectangle" transform="translate(108.500000, 54.500000) scale(-1, 1) translate(-108.500000, -54.500000) " x="93.25" y="46.25" width="30.5" height="16.5"></rect>
                <rect id="Rectangle" transform="translate(139.500000, 37.500000) scale(-1, 1) translate(-139.500000, -37.500000) " x="124.25" y="29.25" width="30.5" height="16.5"></rect>
                <rect id="Rectangle" transform="translate(108.500000, 71.500000) scale(-1, 1) translate(-108.500000, -71.500000) " x="93.25" y="63.25" width="30.5" height="16.5"></rect>
                <rect id="Rectangle" transform="translate(77.500000, 71.500000) scale(-1, 1) translate(-77.500000, -71.500000) " x="62.25" y="63.25" width="30.5" height="16.5"></rect>
                <rect id="Rectangle" transform="translate(108.500000, 88.500000) scale(-1, 1) translate(-108.500000, -88.500000) " x="93.25" y="80.25" width="30.5" height="16.5"></rect>
                <rect id="Rectangle" transform="translate(77.500000, 88.500000) scale(-1, 1) translate(-77.500000, -88.500000) " x="62.25" y="80.25" width="30.5" height="16.5"></rect>
                <rect id="Rectangle" transform="translate(46.500000, 88.500000) scale(-1, 1) translate(-46.500000, -88.500000) " x="31.25" y="80.25" width="30.5" height="16.5"></rect>
            </g>
            <rect id="Rectangle" stroke="#d65f09" fill="#9e3000" stroke-width="0.25" transform="translate(15.500000, 128.500000) scale(-1, 1) translate(-15.500000, -128.500000) " x="0.125" y="120.125" width="30.75" height="16.75"></rect>
            <rect id="Rectangle" stroke="#d65f09" fill="#9e3000" stroke-width="0.25" transform="translate(46.500000, 145.500000) scale(-1, 1) translate(-46.500000, -145.500000) " x="31.125" y="137.125" width="30.75" height="16.75"></rect>
            <rect id="Rectangle" stroke="#d65f09" fill="#9e3000" stroke-width="0.25" transform="translate(58.500000, 116.500000) scale(-1, 1) translate(-58.500000, -116.500000) " x="43.125" y="108.125" width="30.75" height="16.75"></rect>
            <rect id="Rectangle" stroke="#d65f09" fill="#9e3000" stroke-width="0.25" transform="translate(108.500000, 179.500000) scale(-1, 1) translate(-108.500000, -179.500000) " x="93.125" y="171.125" width="30.75" height="16.75"></rect>
            <rect id="Rectangle" stroke="#d65f09" fill="#9e3000" stroke-width="0.25" transform="translate(77.500000, 162.500000) scale(-1, 1) translate(-77.500000, -162.500000) " x="62.125" y="154.125" width="30.75" height="16.75"></rect>
            <rect id="Rectangle" stroke="#d65f09" fill="#9e3000" stroke-width="0.25" transform="translate(139.500000, 196.500000) scale(-1, 1) translate(-139.500000, -196.500000) " x="124.125" y="188.125" width="30.75" height="16.75"></rect>
            <rect id="Rectangle" stroke="#d65f09" fill="#9e3000" stroke-width="0.25" x="0.125" y="188.125" width="30.75" height="16.75"></rect>
            <rect id="Rectangle" stroke="#d65f09" fill="#9e3000" stroke-width="0.25" x="0.125" y="171.125" width="30.75" height="16.75"></rect>
            <rect id="Rectangle" stroke="#d65f09" fill="#9e3000" stroke-width="0.25" x="0.125" y="154.125" width="30.75" height="16.75"></rect>
            <rect id="Rectangle" stroke="#d65f09" fill="#9e3000" stroke-width="0.25" x="31.125" y="154.125" width="30.75" height="16.75"></rect>
            <rect id="Rectangle" stroke="#d65f09" fill="#9e3000" stroke-width="0.25" x="0.125" y="137.125" width="30.75" height="16.75"></rect>
            <rect id="Rectangle" stroke="#d65f09" fill="#9e3000" stroke-width="0.25" x="31.125" y="171.125" width="30.75" height="16.75"></rect>
            <rect id="Rectangle" stroke="#d65f09" fill="#9e3000" stroke-width="0.25" x="62.125" y="171.125" width="30.75" height="16.75"></rect>
            <rect id="Rectangle" stroke="#d65f09" fill="#9e3000" stroke-width="0.25" x="31.125" y="188.125" width="30.75" height="16.75"></rect>
            <rect id="Rectangle" stroke="#d65f09" fill="#9e3000" stroke-width="0.25" x="62.125" y="188.125" width="30.75" height="16.75"></rect>
            <rect id="Rectangle" stroke="#d65f09" fill="#9e3000" stroke-width="0.25" x="93.125" y="188.125" width="30.75" height="16.75"></rect>
        </g>
    </g>
</svg>